<?xml version="1.0" standalone="no"?>
<!DOCTYPE svg PUBLIC "-//W3C//DTD SVG 20010904//EN"
 "http://www.w3.org/TR/2001/REC-SVG-20010904/DTD/svg10.dtd">
<svg version="1.0" xmlns="http://www.w3.org/2000/svg"
 width="400.000000pt" height="400.000000pt" viewBox="0 0 400.000000 400.000000"
 preserveAspectRatio="xMidYMid meet">
<metadata>
Created by potrace 1.14, written by Peter Selinger 2001-2017
</metadata>
<g transform="translate(0.000000,400.000000) scale(0.100000,-0.100000)"
fill="#000000" stroke="none">
<path d="M1505 2217 c-9 -5 -25 -7 -35 -4 -33 8 -114 -14 -141 -39 -14 -13
-37 -24 -52 -24 -39 0 -38 -37 1 -42 24 -3 27 -8 30 -44 2 -33 12 -51 50 -91
46 -48 50 -50 142 -68 135 -26 224 -12 315 47 59 39 67 48 81 95 14 49 17 52
55 58 22 4 62 4 89 0 l50 -7 17 -54 c15 -49 23 -58 82 -97 55 -36 76 -43 145
-52 68 -9 97 -7 179 9 97 19 98 19 136 67 24 30 41 64 45 89 5 34 10 40 31 40
20 0 25 5 25 25 0 20 -5 25 -26 25 -14 0 -39 11 -55 24 -20 17 -46 26 -86 30
-32 4 -71 11 -87 16 -16 5 -32 8 -35 6 -3 -2 -74 -12 -156 -21 -138 -15 -152
-19 -180 -44 -28 -27 -35 -28 -121 -27 -82 1 -94 4 -126 28 -29 22 -52 29
-139 38 -57 7 -130 15 -161 19 -31 4 -64 3 -73 -2z m-45 -28 c-15 -10 -7 -9
53 8 10 2 41 -1 68 -7 40 -10 47 -15 38 -26 -6 -7 -8 -18 -5 -23 4 -5 2 -12
-3 -15 -5 -4 -12 -2 -16 4 -12 19 -25 10 -25 -17 1 -18 10 -34 25 -45 21 -16
25 -16 39 -3 8 8 19 15 25 15 6 0 14 12 17 26 5 21 2 31 -17 45 -30 23 -22 23
48 3 49 -14 57 -20 73 -57 l19 -42 -6 35 c-9 52 -16 62 -64 82 l-44 18 75 -6
c67 -5 79 -9 107 -37 l32 -32 -16 -56 c-16 -50 -23 -59 -78 -96 -87 -58 -170
-69 -310 -41 -100 20 -100 20 -137 68 -33 42 -38 55 -38 103 0 41 5 58 20 72
20 18 66 32 110 34 20 1 22 -1 10 -10z m1058 -3 c20 -4 31 -2 27 4 -8 12 -2
12 55 -1 66 -15 80 -32 80 -97 0 -48 -4 -60 -37 -101 -20 -25 -37 -47 -38 -48
-1 -2 -46 -12 -101 -23 -135 -28 -221 -17 -310 41 -55 35 -62 44 -78 95 l-18
57 34 32 c30 30 41 34 108 39 l75 6 -44 -18 c-44 -19 -52 -30 -64 -87 -5 -24
-3 -22 12 12 11 22 28 44 38 46 161 47 197 55 218 51 6 -1 25 -5 43 -8z"/>
<path d="M2369 2163 c-1 -5 -1 -16 0 -25 2 -20 -10 -23 -26 -7 -8 8 -13 5 -18
-11 -10 -32 35 -78 56 -58 8 8 22 17 32 21 22 8 22 49 -1 70 -19 18 -41 22
-43 10z"/>
<path d="M1423 758 c-46 -46 -83 -91 -83 -100 0 -10 -33 -33 -90 -62 -75 -39
-137 -59 -376 -121 -158 -40 -290 -77 -294 -82 -11 -11 -170 -386 -166 -390 1
-2 716 -2 1588 -1 l1585 3 -83 195 -82 195 -292 76 c-255 66 -305 82 -386 125
-53 28 -94 56 -94 64 -1 8 -36 53 -80 99 l-78 84 -1 -69 c-1 -38 -5 -106 -10
-151 -8 -76 -11 -86 -50 -131 -79 -95 -112 -118 -187 -132 -103 -19 -107 -21
-128 -83 -18 -52 -59 -118 -68 -107 -3 3 -35 43 -72 90 -38 47 -76 88 -85 91
-9 4 -58 10 -108 14 l-93 7 -60 75 c-33 42 -64 92 -69 112 -17 72 -51 237 -54
259 -2 20 -13 12 -84 -60z"/>
</g>
</svg>
